{"title":"The Escape Artist S01E02 HDTV 480p x264 AAC E-Subs [GWC].mp4","uid":9152805,"size":152575798,"categoryP":"video","categoryS":"tv_shows","magnet":"?xt=urn:btih:ab5502a1ea9c42d852a9d89389304dceef21a071&amp;dn=The+Escape+Artist+S01E02+HDTV+480p+x264+AAC+E-Subs+%5BGWC%5D.mp4&amp;tr=udp%3A%2F%2Ftracker.openbittorrent.com%3A80&amp;tr=udp%3A%2F%2Fopen.demonii.com%3A1337&amp;tr=udp%3A%2F%2Ftracker.coppersurfer.tk%3A6969&amp;tr=udp%3A%2F%2Fexodus.desync.com%3A6969","seeders":2,"leechers":1,"uploader":"canc232","files":1,"time":1383726383,"description":"The Escape Artist S01E02 HDTV 480p x264 AAC E-Subs [GWC]\n\nSCREENS:\n &lt;a href=&quot;\nhttp://s20.postimg.org/hb4j0be9p/the_escape_artist_s01e02_hdtv_12_39_45.jpg&quot; rel=&quot;nofollow&quot; target=&quot;_NEW&quot;&gt;\nhttp://s20.postimg.org/hb4j0be9p/the_escape_artist_s01e02_hdtv_12_39_45.jpg&lt;/a&gt; &lt;a href=&quot;\nhttp://s20.postimg.org/c0zk90u0t/the_escape_artist_s01e02_hdtv_12_40_08.jpg&quot; rel=&quot;nofollow&quot; target=&quot;_NEW&quot;&gt;\nhttp://s20.postimg.org/c0zk90u0t/the_escape_artist_s01e02_hdtv_12_40_08.jpg&lt;/a&gt; &lt;a href=&quot;\nhttp://s20.postimg.org/61gej3ym5/the_escape_artist_s01e02_hdtv_12_40_35.jpg&quot; rel=&quot;nofollow&quot; target=&quot;_NEW&quot;&gt;\nhttp://s20.postimg.org/61gej3ym5/the_escape_artist_s01e02_hdtv_12_40_35.jpg&lt;/a&gt;\n\n\n\nMEDIA INFO :\n\nGeneral \nFormat : MPEG-4 \nFormat profile : Base Media \nFile size : 146 MiB \nDuration : 58mn 2s \nOverall bit rate : 351 Kbps \n\nVideo \nFormat : AVC\nFormat profile : &lt;a class=&quot;__cf_email__&quot; href=&quot;/cdn-cgi/l/email-protection&quot; data-cfemail=&quot;6d25040a052d215e435d&quot;&gt;[email&amp;#160;protected]&lt;/a&gt;&lt;script cf-hash='f9e31' type=&quot;text/javascript&quot;&gt;\n/* &lt;![CDATA[ */!function(){try{var t=&quot;currentScript&quot;in document?document.currentScript:function(){for(var t=document.getElementsByTagName(&quot;script&quot;),e=t.length;e--;)if(t[e].getAttribute(&quot;cf-hash&quot;))return t[e]}();if(t&amp;&amp;t.previousSibling){var e,r,n,i,c=t.previousSibling,a=c.getAttribute(&quot;data-cfemail&quot;);if(a){for(e=&quot;&quot;,r=parseInt(a.substr(0,2),16),n=2;a.length-n;n+=2)i=parseInt(a.substr(n,2),16)^r,e+=String.fromCharCode(i);e=document.createTextNode(e),c.parentNode.replaceChild(e,c)}}}catch(u){}}();/* ]]&gt; */&lt;/script&gt; \nFormat settings, CABAC : Yes \nFormat settings, ReFrames : 4 frames \nDuration : 58mn 2s \nBit rate : 287 Kbps \nWidth : 720 pixels \nHeight : 404 pixels \nDisplay aspect ratio : 16:9 \nFrame rate : 25.000 fps \nStream size : 119 MiB (82%) \nTitle : The Escape Artist S01E02 HDTV 480p x264 AAC E-Subs [GWC] \nWriting library : x264 core \n\nAudio \nFormat : AAC \nFormat profile : HE-AAC / LC \nDuration : 58mn 2s \nBit rate mode : Variable \nChannel(s) : 2 channels \nSampling rate : 48.0 KHz / 24.0 KHz \nStream size : 24.9 MiB (17%) \nLanguage : English \n\nText \nFormat : Timed Text \nDuration : 57mn 34s  \nTitle : English Subtitle by Stubbie \nLanguage : English","torrent":{"xt":"urn:btih:ab5502a1ea9c42d852a9d89389304dceef21a071","amp;dn":"The+Escape+Artist+S01E02+HDTV+480p+x264+AAC+E-Subs+%5BGWC%5D.mp4","amp;tr":["udp%3A%2F%2Ftracker.openbittorrent.com%3A80","udp%3A%2F%2Fopen.demonii.com%3A1337","udp%3A%2F%2Ftracker.coppersurfer.tk%3A6969","udp%3A%2F%2Fexodus.desync.com%3A6969"],"infoHash":"ab5502a1ea9c42d852a9d89389304dceef21a071","infoHashBuffer":{"type":"Buffer","data":[171,85,2,161,234,156,66,216,82,169,216,147,137,48,77,206,239,33,160,113]},"announce":[],"urlList":[]}}